<svg id="Layer_1" height="512" viewBox="0 0 512 512" width="512" xmlns="http://www.w3.org/2000/svg" data-name="Layer 1"><path d="m499.73 85.36c7.22 37.22-15.76 86.91-83.84 114.49a5.67 5.67 0 0 1 -4.38 0c-67.86-26.92-91.07-76.83-83.84-114.49 4.81-25.39 22.55-41.59 45.53-41.59 12.92 0 26.71 5.26 40.5 15.55 13.57-9.86 27.58-15.11 40.28-15.11 22.98 0 40.71 16.2 45.75 41.15z" fill="#eb7288"/><path d="m11 199.06h102.25v261.63h-102.25z" fill="#4689d3"/><path d="m446.95 324.76a29.45 29.45 0 0 0 -29.45-29.45v-.13h2.73a26.725 26.725 0 0 0 0-53.45h-120.65a22.049 22.049 0 0 1 -21.92-19.66 109.255 109.255 0 0 1 6.32-50.18 132.235 132.235 0 0 0 8.46-46.55v-9.79a48.153 48.153 0 0 0 -48.15-48.15l-5.41 35.36a241.741 241.741 0 0 1 -42.76 104.6 70.8 70.8 0 0 1 -57.29 29.2h-25.58v190.94h23.59a159.119 159.119 0 0 1 83.92 23.92c12.6 7.82 26.17 12.02 40.29 14.27s28.81 2.54 43.64 2.54h100.66a28.445 28.445 0 1 0 0-56.89h13.04a28.565 28.565 0 0 0 0-57.13h-.89a29.448 29.448 0 0 0 29.45-29.45z" fill="#ffd8b7"/><path d="m358.67 85.36c3.692-19.492 15.01-33.557 30.464-39.045a53.672 53.672 0 0 0 -15.934-2.545c-22.98 0-40.72 16.2-45.53 41.59-7.23 37.66 15.98 87.57 83.84 114.49a5.67 5.67 0 0 0 4.38 0q6.914-2.8 13.2-5.9c-57.49-27.858-77.151-73.531-70.42-108.59z" fill="#cc6077"/><path d="m11 199.06h31v261.63h-31z" fill="#3e7eb7"/></svg>